{
  "accessors": [
    {
      "bufferView": 2,
      "componentType": 5126,
      "count": 13826,
      "max": [
        1.0,
        1.0,
        1.0
      ],
      "min": [
        -1.0,
        -1.0,
        -1.0
      ],
      "type": "VEC3"
    },
    {
      "bufferView": 2,
      "byteOffset": 165912,
      "componentType": 5126,
      "count": 13826,
      "max": [
        1.0,
        1.0,
        1.0
      ],
      "min": [
        -1.0,
        -1.0,
        -1.0
      ],
      "type": "VEC3"
    },
    {
      "bufferView": 1,
      "componentType": 5126,
      "count": 13826,
      "max": [
        0.0,
        0.0
      ],
      "min": [
        0.0,
        0.0
      ],
      "type": "VEC2"
    },
    {
      "bufferView": 0,
      "componentType": 5125,
      "count": 82944,
      "type": "SCALAR"
    },
    {
      "bufferView": 2,
      "byteOffset": 331824,
      "componentType": 5126,
      "count": 46651,
      "max": [
        2.7591586112976074,
        1.1299998760223389,
        2.759159803390503
      ],
      "min": [
        -2.759159564971924,
        -1.1299998760223389,
        -2.759160280227661
      ],
      "type": "VEC3"
    },
    {
      "bufferView": 2,
      "byteOffset": 891636,
      "componentType": 5126,
      "count": 46651,
      "max": [
        1.0,
        1.0,
        1.0
      ],
      "min": [
        -1.0,
        -1.0,
        -1.0
      ],
      "type": "VEC3"
    },
    {
      "bufferView": 1,
      "byteOffset": 110608,
      "componentType": 5126,
      "count": 46651,
      "max": [
        1.0000001192092896,
        1.0
      ],
      "min": [
        0.0,
        0.0
      ],
      "type": "VEC2"
    },
    {
      "bufferView": 0,
      "byteOffset": 331776,
      "componentType": 5125,
      "count": 276048,
      "type": "SCALAR"
    },
    {
      "bufferView": 2,
      "byteOffset": 1451448,
      "componentType": 5126,
      "count": 5327,
      "max": [
        1.1622748374938965,
        0.7799999713897705,
        1.1622748374938965
      ],
      "min": [
        -1.1622751951217651,
        -0.7799999713897705,
        -1.162275791168213
      ],
      "type": "VEC3"
    },
    {
      "bufferView": 2,
      "byteOffset": 1515372,
      "componentType": 5126,
      "count": 5327,
      "max": [
        1.0,
        1.0,
        1.0
      ],
      "min": [
        -1.0,
        -1.0,
        -1.0
      ],
      "type": "VEC3"
    },
    {
      "bufferView": 1,
      "byteOffset": 483816,
      "componentType": 5126,
      "count": 5327,
      "max": [
        1.0000001192092896,
        1.0
      ],
      "min": [
        0.0,
        0.0
      ],
      "type": "VEC2"
    },
    {
      "bufferView": 0,
      "byteOffset": 1435968,
      "componentType": 5125,
      "count": 30672,
      "type": "SCALAR"
    },
    {
      "bufferView": 2,
      "byteOffset": 1579296,
      "componentType": 5126,
      "count": 5327,
      "max": [
        1.162274718284607,
        0.7799999713897705,
        1.162274956703186
      ],
      "min": [
        -1.1622751951217651,
        -0.7799999713897705,
        -1.162275791168213
      ],
      "type": "VEC3"
    },
    {
      "bufferView": 2,
      "byteOffset": 1643220,
      "componentType": 5126,
      "count": 5327,
      "max": [
        1.0,
        1.0,
        1.0
      ],
      "min": [
        -1.0,
        -1.0,
        -1.0
      ],
      "type": "VEC3"
    },
    {
      "bufferView": 1,
      "byteOffset": 526432,
      "componentType": 5126,
      "count": 5327,
      "max": [
        1.0000001192092896,
        1.0
      ],
      "min": [
        0.0,
        0.0
      ],
      "type": "VEC2"
    },
    {
      "bufferView": 0,
      "byteOffset": 1558656,
      "componentType": 5125,
      "count": 30672,
      "type": "SCALAR"
    },
    {
      "bufferView": 2,
      "byteOffset": 1707144,
      "componentType": 5126,
      "count": 46651,
      "max": [
        3.0406439304351807,
        1.2452807426452637,
        3.040645122528076
      ],
      "min": [
        -3.040644884109497,
        -1.2452807426452637,
        -3.0406455993652344
      ],
      "type": "VEC3"
    },
    {
      "bufferView": 2,
      "byteOffset": 2266956,
      "componentType": 5126,
      "count": 46651,
      "max": [
        1.0,
        1.0,
        1.0
      ],
      "min": [
        -1.0,
        -1.0,
        -1.0
      ],
      "type": "VEC3"
    },
    {
      "bufferView": 1,
      "byteOffset": 569048,
      "componentType": 5126,
      "count": 46651,
      "max": [
        1.0000001192092896,
        1.0
      ],
      "min": [
        0.0,
        0.0
      ],
      "type": "VEC2"
    },
    {
      "bufferView": 0,
      "byteOffset": 1681344,
      "componentType": 5125,
      "count": 276048,
      "type": "SCALAR"
    }
  ],
  "asset": {
    "extras": {
      "author": "Bl@ke (https://sketchfab.com/Bl_at_ke)",
      "license": "CC-BY-4.0 (http://creativecommons.org/licenses/by/4.0/)",
      "source": "https://sketchfab.com/3d-models/gargantua-the-black-hole-d8b4c8af897842d0a85f4ea170e4fecc",
      "title": "Gargantua the Black Hole"
    },
    "generator": "Sketchfab-15.1.0",
    "version": "2.0"
  },
  "bufferViews": [
    {
      "buffer": 0,
      "byteLength": 2785536,
      "name": "floatBufferViews",
      "target": 34963
    },
    {
      "buffer": 0,
      "byteLength": 942256,
      "byteOffset": 2785536,
      "byteStride": 8,
      "name": "floatBufferViews",
      "target": 34962
    },
    {
      "buffer": 0,
      "byteLength": 2826768,
      "byteOffset": 3727792,
      "byteStride": 12,
      "name": "floatBufferViews",
      "target": 34962
    }
  ],
  "buffers": [
    {
      "byteLength": 6554560,
      "uri": "scene.bin"
    }
  ],
  "extensionsUsed": [
    "KHR_materials_emissive_strength"
  ],
  "materials": [
    {
      "extensions": {
        "KHR_materials_emissive_strength": {
          "emissiveStrength": 10.0
        }
      },
      "name": "black",
      "pbrMetallicRoughness": {
        "baseColorFactor": [
          0.0,
          0.0,
          0.0,
          1.0
        ],
        "metallicFactor": 0.0
      }
    },
    {
      "emissiveFactor": [
        0.5190816593712904,
        0.4902495545555783,
        0.0438241792128989
      ],
      "extensions": {
        "KHR_materials_emissive_strength": {
          "emissiveStrength": 4.436285757992962
        }
      },
      "name": "accretion_disk",
      "pbrMetallicRoughness": {
        "baseColorFactor": [
          0.7856623485869243,
          0.727330958508909,
          0.45395580434214,
          1.0
        ],
        "metallicFactor": 0.0
      }
    },
    {
      "emissiveFactor": [
        1.0,
        1.0,
        1.0
      ],
      "name": "Einstein_ring",
      "pbrMetallicRoughness": {
        "baseColorFactor": [
          0.8,
          0.8,
          0.8,
          1.0
        ],
        "metallicFactor": 0.0
      }
    },
    {
      "alphaMode": "BLEND",
      "emissiveFactor": [
        1.0,
        1.0,
        1.0
      ],
      "extensions": {
        "KHR_materials_emissive_strength": {
          "emissiveStrength": 10.0
        }
      },
      "name": "glowing",
      "pbrMetallicRoughness": {
        "baseColorFactor": [
          1.0,
          1.0,
          1.0,
          0.35184335322013155
        ],
        "metallicFactor": 0.0
      }
    }
  ],
  "meshes": [
    {
      "name": "Object_0",
      "primitives": [
        {
          "attributes": {
            "NORMAL": 1,
            "POSITION": 0,
            "TEXCOORD_0": 2
          },
          "indices": 3,
          "material": 0,
          "mode": 4
        }
      ]
    },
    {
      "name": "Object_1",
      "primitives": [
        {
          "attributes": {
            "NORMAL": 5,
            "POSITION": 4,
            "TEXCOORD_0": 6
          },
          "indices": 7,
          "material": 1,
          "mode": 4
        }
      ]
    },
    {
      "name": "Object_2",
      "primitives": [
        {
          "attributes": {
            "NORMAL": 9,
            "POSITION": 8,
            "TEXCOORD_0": 10
          },
          "indices": 11,
          "material": 2,
          "mode": 4
        }
      ]
    },
    {
      "name": "Object_3",
      "primitives": [
        {
          "attributes": {
            "NORMAL": 13,
            "POSITION": 12,
            "TEXCOORD_0": 14
          },
          "indices": 15,
          "material": 0,
          "mode": 4
        }
      ]
    },
    {
      "name": "Object_4",
      "primitives": [
        {
          "attributes": {
            "NORMAL": 17,
            "POSITION": 16,
            "TEXCOORD_0": 18
          },
          "indices": 19,
          "material": 3,
          "mode": 4
        }
      ]
    }
  ],
  "nodes": [
    {
      "children": [
        1
      ],
      "matrix": [
        0.9776377081871033,
        0.2096594125032425,
        0.01635346561670308,
        0.0,
        3.469446951953614e-18,
        0.07776395231485389,
        -0.9969717860221863,
        0.0,
        -0.21029622852802277,
        0.9746772050857544,
        0.07602497190237067,
        0.0,
        0.0,
        0.0,
        0.0,
        1.0
      ],
      "name": "Sketchfab_model"
    },
    {
      "children": [
        2
      ],
      "name": "root"
    },
    {
      "children": [
        3,
        5,
        7,
        9,
        11
      ],
      "matrix": [
        1.0,
        0.0,
        0.0,
        0.0,
        0.0,
        2.220446049250313e-16,
        1.0,
        0.0,
        0.0,
        -1.0,
        2.220446049250313e-16,
        0.0,
        0.0,
        0.0,
        0.0,
        1.0
      ],
      "name": "GLTF_SceneRootNode"
    },
    {
      "children": [
        4
      ],
      "matrix": [
        0.7476020455360413,
        0.0,
        0.0,
        0.0,
        0.0,
        0.7476020455360413,
        0.0,
        0.0,
        0.0,
        0.0,
        0.7476020455360413,
        0.0,
        0.0,
        0.0,
        0.0,
        1.0
      ],
      "name": "Blackhole_0"
    },
    {
      "mesh": 0,
      "name": "Object_4"
    },
    {
      "children": [
        6
      ],
      "matrix": [
        0.9102844595909119,
        0.0,
        0.0,
        0.0,
        0.0,
        0.9102844595909119,
        0.0,
        0.0,
        0.0,
        0.0,
        0.9102844595909119,
        0.0,
        0.0,
        0.0,
        0.0,
        1.0
      ],
      "name": "accretion disk_1"
    },
    {
      "mesh": 1,
      "name": "Object_6"
    },
    {
      "children": [
        8
      ],
      "name": "Einstein ring_2"
    },
    {
      "mesh": 2,
      "name": "Object_8"
    },
    {
      "children": [
        10
      ],
      "matrix": [
        1.0478582382202148,
        0.0,
        0.0,
        0.0,
        0.0,
        1.0478582382202148,
        0.0,
        0.0,
        0.0,
        0.0,
        1.0478582382202148,
        0.0,
        0.0,
        0.0,
        0.0,
        1.0
      ],
      "name": "Einstein ring.001_3"
    },
    {
      "mesh": 3,
      "name": "Object_10"
    },
    {
      "children": [
        12
      ],
      "matrix": [
        1.065138816833496,
        0.0,
        0.0,
        0.0,
        0.0,
        1.065138816833496,
        0.0,
        0.0,
        0.0,
        0.0,
        1.065138816833496,
        0.0,
        0.0,
        0.0,
        0.0,
        1.0
      ],
      "name": "glowing_4"
    },
    {
      "mesh": 4,
      "name": "Object_12"
    }
  ],
  "scene": 0,
  "scenes": [
    {
      "name": "Sketchfab_Scene",
      "nodes": [
        0
      ]
    }
  ]
}
